<svg data-v-423bf9ae="" xmlns="http://www.w3.org/2000/svg" viewBox="0 0 260 90" class="iconLeft"><!----><!----><defs data-v-423bf9ae=""><linearGradient data-v-423bf9ae="" gradientTransform="rotate(25)" id="f8db652b-5d75-46fc-be95-b4e4025d2f1d" x1="0%" y1="0%" x2="100%" y2="0%"><stop data-v-423bf9ae="" offset="0%" style="stop-color: rgb(84, 72, 200); stop-opacity: 1;"></stop><stop data-v-423bf9ae="" offset="100%" style="stop-color: rgb(0, 166, 255); stop-opacity: 1;"></stop></linearGradient></defs><g data-v-423bf9ae="" id="b8adc78a-0d6c-408c-9821-37a30126ff61" fill="url(#f8db652b-5d75-46fc-be95-b4e4025d2f1d)" transform="matrix(5.656824750766192,0,0,5.656824750766192,106.48123364211608,14.151477594772278)"><path d="M8.01 0.56L8.01 0.56C7.35 0.29 6.65 0.15 5.94 0.15C2.41 0.15 0.66 2.81 0.67 5.47C0.69 8.09 2.45 10.71 5.94 10.71C6.65 10.71 7.35 10.57 8.01 10.30C8.57 10.08 8.22 9.21 7.64 9.45C7.10 9.66 6.54 9.79 5.94 9.79C3.07 9.79 1.60 7.64 1.58 5.45C1.58 2.98 3.37 1.08 5.89 1.08C6.50 1.08 7.08 1.19 7.64 1.43C8.22 1.65 8.57 0.80 8.01 0.56ZM7.36 7.50L7.36 7.50C6.89 7.77 6.37 7.88 5.88 7.87C4.68 7.83 3.60 6.99 3.60 5.45C3.60 3.26 5.74 2.46 7.36 3.36C7.90 3.67 8.34 2.84 7.80 2.56C5.53 1.29 2.67 2.56 2.67 5.45C2.67 7.52 4.19 8.78 5.89 8.81C6.54 8.82 7.20 8.67 7.80 8.32C8.34 8.02 7.90 7.22 7.36 7.50ZM17.61 9.63L17.61 9.63L17.61 5.49C17.61 4.87 16.67 4.87 16.67 5.49L16.67 9.35C13.97 10.68 10.44 9.10 10.39 5.57C10.33 2.23 13.44 0.39 16.73 1.46L16.73 1.46C17.39 1.68 17.68 0.78 17.01 0.57C13.09-0.69 9.38 1.60 9.45 5.59C9.52 9.84 13.86 11.97 17.36 10.04C17.51 9.95 17.61 9.80 17.61 9.63ZM16.87 2.51L16.87 2.51C16.24 2.24 15.53 2.11 14.70 2.14C10.26 2.30 10.46 8.83 14.71 8.83C15.06 8.83 15.71 8.82 15.71 8.32L15.71 5.49C15.71 4.87 14.76 4.87 14.76 5.49L14.76 7.88C11.63 7.91 11.54 3.19 14.73 3.07C15.40 3.05 15.99 3.15 16.49 3.37C17.05 3.61 17.43 2.77 16.87 2.51ZM26.70 0.56L26.70 0.56C26.04 0.29 25.34 0.15 24.63 0.15C21.10 0.15 19.35 2.81 19.36 5.47C19.38 8.09 21.14 10.71 24.63 10.71C25.34 10.71 26.04 10.57 26.70 10.30C27.26 10.08 26.91 9.21 26.33 9.45C25.79 9.66 25.23 9.79 24.63 9.79C21.76 9.79 20.29 7.64 20.27 5.45C20.27 2.98 22.06 1.08 24.58 1.08C25.19 1.08 25.77 1.19 26.33 1.43C26.91 1.65 27.26 0.80 26.70 0.56ZM26.05 7.50L26.05 7.50C25.58 7.77 25.06 7.88 24.57 7.87C23.37 7.83 22.29 6.99 22.29 5.45C22.29 3.26 24.43 2.46 26.05 3.36C26.59 3.67 27.03 2.84 26.49 2.56C24.22 1.29 21.36 2.56 21.36 5.45C21.36 7.52 22.88 8.78 24.58 8.81C25.23 8.82 25.89 8.67 26.49 8.32C27.03 8.02 26.59 7.22 26.05 7.50Z"></path></g><defs data-v-423bf9ae=""><linearGradient data-v-423bf9ae="" gradientTransform="rotate(25)" id="6131bd32-9fa3-4ab4-97cc-250b4afadc46" x1="0%" y1="0%" x2="100%" y2="0%"><stop data-v-423bf9ae="" offset="0%" style="stop-color: rgb(84, 72, 200); stop-opacity: 1;"></stop><stop data-v-423bf9ae="" offset="100%" style="stop-color: rgb(0, 166, 255); stop-opacity: 1;"></stop></linearGradient></defs><g data-v-423bf9ae="" id="93a9fcf2-3cae-4b40-849e-01d745a865df" transform="matrix(1.6732666947518926,0,0,1.6732666947518926,-7.5186955692949695,-8.438372925343735)" stroke="none" fill="url(#6131bd32-9fa3-4ab4-97cc-250b4afadc46)"><path d="M20.089 31H31v-2.485c-1.248-.421-2.154-1.588-2.154-2.976s.906-2.555 2.154-2.976v-2.018a57.346 57.346 0 0 1-9.516-1.047c-.827 3.481-1.325 7.391-1.395 11.502z"></path><circle cx="32" cy="25.539" r="1.154"></circle><path d="M31 18.544V5.107c-3.733.741-7.037 5.576-9.009 12.457 2.827.553 5.865.889 9.009.98zM21.553 44.795A58.495 58.495 0 0 1 31 43.94V33H20.089c.072 4.226.595 8.24 1.464 11.795zM39.075 46.404a3.144 3.144 0 0 1-2.768 1.673 3.15 3.15 0 0 1-2.965-2.12l-.343-.007v12.943c3.659-.728 6.907-5.383 8.891-12.046a51.573 51.573 0 0 0-2.815-.443zM45.911 33c-.069 4.462-.601 8.637-1.5 12.334 3.369.785 6.414 1.875 8.905 3.207A26.844 26.844 0 0 0 58.974 33H45.911zM44.583 19.379c.797 3.517 1.263 7.445 1.328 11.621h13.063a26.841 26.841 0 0 0-5.078-14.769c-2.65 1.343-5.819 2.412-9.313 3.148zM42.078 17.806C40.115 10.796 36.777 5.857 33 5.107v13.458a56.948 56.948 0 0 0 9.078-.759zM44.096 17.442c3.197-.668 6.091-1.63 8.541-2.826a27.031 27.031 0 0 0-14.734-8.958c2.618 2.496 4.779 6.612 6.193 11.784zM31 58.894V45.939a56.721 56.721 0 0 0-8.925.79C24.056 53.455 27.32 58.162 31 58.894z"></path><circle cx="12.993" cy="32" r="1.531"></circle><path d="M20.055 47.107c-3.09.662-5.893 1.597-8.277 2.754a27 27 0 0 0 14.315 8.479c-2.526-2.406-4.624-6.319-6.038-11.233zM9.623 31c.435-1.458 1.772-2.531 3.37-2.531 1.656 0 3.04 1.15 3.419 2.691a.967.967 0 0 1 .51-.16h1.166c.067-4.304.562-8.343 1.405-11.941-3.402-.826-6.459-1.971-8.971-3.396A26.852 26.852 0 0 0 5.025 31h4.598zM43.898 47.267c-1.413 4.839-3.493 8.692-5.99 11.074a27.015 27.015 0 0 0 14.101-8.232c-2.287-1.173-5.057-2.136-8.111-2.842zM43.911 33H33v10.951c.107.002.215.003.321.006.411-1.265 1.587-2.188 2.986-2.188a3.15 3.15 0 0 1 3.104 2.663c1.021.134 2.023.292 3.005.479.888-3.583 1.423-7.639 1.495-11.911zM42.572 19.746a58.674 58.674 0 0 1-9.572.819v1.998c1.248.421 2.154 1.588 2.154 2.976s-.906 2.555-2.154 2.976V31h10.911c-.068-4.014-.546-7.835-1.339-11.254z"></path><circle cx="36.308" cy="44.923" r="1.154"></circle><path d="M18.089 33h-1.166a.967.967 0 0 1-.51-.16 3.529 3.529 0 0 1-3.419 2.691c-1.598 0-2.936-1.073-3.37-2.531H5.025a26.846 26.846 0 0 0 5.443 15.269c2.59-1.312 5.68-2.359 9.081-3.094-.875-3.657-1.392-7.777-1.46-12.175zM19.991 17.126c1.415-5.024 3.54-9.022 6.105-11.468a27.008 27.008 0 0 0-14.272 8.426c2.307 1.265 5.076 2.293 8.167 3.042z"></path></g><!----></svg>