<svg data-v-423bf9ae="" xmlns="http://www.w3.org/2000/svg" viewBox="0 0 148.8470031072068 60" class="font"><!----><!----><!----><g data-v-423bf9ae="" id="f66e032d-5dab-42eb-a242-1bfd889c4b58" fill="white" transform="matrix(5.656824750766192,0,0,5.656824750766192,-3.7898234867901692,-0.8485243125763553)"><path d="M8.01 0.56L8.01 0.56C7.35 0.29 6.65 0.15 5.94 0.15C2.41 0.15 0.66 2.81 0.67 5.47C0.69 8.09 2.45 10.71 5.94 10.71C6.65 10.71 7.35 10.57 8.01 10.30C8.57 10.08 8.22 9.21 7.64 9.45C7.10 9.66 6.54 9.79 5.94 9.79C3.07 9.79 1.60 7.64 1.58 5.45C1.58 2.98 3.37 1.08 5.89 1.08C6.50 1.08 7.08 1.19 7.64 1.43C8.22 1.65 8.57 0.80 8.01 0.56ZM7.36 7.50L7.36 7.50C6.89 7.77 6.37 7.88 5.88 7.87C4.68 7.83 3.60 6.99 3.60 5.45C3.60 3.26 5.74 2.46 7.36 3.36C7.90 3.67 8.34 2.84 7.80 2.56C5.53 1.29 2.67 2.56 2.67 5.45C2.67 7.52 4.19 8.78 5.89 8.81C6.54 8.82 7.20 8.67 7.80 8.32C8.34 8.02 7.90 7.22 7.36 7.50ZM17.61 9.63L17.61 9.63L17.61 5.49C17.61 4.87 16.67 4.87 16.67 5.49L16.67 9.35C13.97 10.68 10.44 9.10 10.39 5.57C10.33 2.23 13.44 0.39 16.73 1.46L16.73 1.46C17.39 1.68 17.68 0.78 17.01 0.57C13.09-0.69 9.38 1.60 9.45 5.59C9.52 9.84 13.86 11.97 17.36 10.04C17.51 9.95 17.61 9.80 17.61 9.63ZM16.87 2.51L16.87 2.51C16.24 2.24 15.53 2.11 14.70 2.14C10.26 2.30 10.46 8.83 14.71 8.83C15.06 8.83 15.71 8.82 15.71 8.32L15.71 5.49C15.71 4.87 14.76 4.87 14.76 5.49L14.76 7.88C11.63 7.91 11.54 3.19 14.73 3.07C15.40 3.05 15.99 3.15 16.49 3.37C17.05 3.61 17.43 2.77 16.87 2.51ZM26.70 0.56L26.70 0.56C26.04 0.29 25.34 0.15 24.63 0.15C21.10 0.15 19.35 2.81 19.36 5.47C19.38 8.09 21.14 10.71 24.63 10.71C25.34 10.71 26.04 10.57 26.70 10.30C27.26 10.08 26.91 9.21 26.33 9.45C25.79 9.66 25.23 9.79 24.63 9.79C21.76 9.79 20.29 7.64 20.27 5.45C20.27 2.98 22.06 1.08 24.58 1.08C25.19 1.08 25.77 1.19 26.33 1.43C26.91 1.65 27.26 0.80 26.70 0.56ZM26.05 7.50L26.05 7.50C25.58 7.77 25.06 7.88 24.57 7.87C23.37 7.83 22.29 6.99 22.29 5.45C22.29 3.26 24.43 2.46 26.05 3.36C26.59 3.67 27.03 2.84 26.49 2.56C24.22 1.29 21.36 2.56 21.36 5.45C21.36 7.52 22.88 8.78 24.58 8.81C25.23 8.82 25.89 8.67 26.49 8.32C27.03 8.02 26.59 7.22 26.05 7.50Z"></path></g><!----><!----></svg>